<?xml version="1.0" standalone="no"?>
<!DOCTYPE svg PUBLIC "-//W3C//DTD SVG 1.1//EN" "http://www.w3.org/Graphics/SVG/1.1/DTD/svg11.dtd" >
<svg xmlns="http://www.w3.org/2000/svg">
<metadata>
Created by FontForge 20120731 at Fri Jun 19 10:55:08 2015
 By Ads
</metadata>
<defs>
<font id="iconfont" horiz-adv-x="1024" >
  <font-face 
    font-family="iconfont"
    font-weight="500"
    font-stretch="normal"
    units-per-em="1024"
    panose-1="2 0 6 3 0 0 0 0 0 0"
    ascent="812"
    descent="-212"
    x-height="792"
    bbox="0 -224 1028 812"
    underline-thickness="50"
    underline-position="-100"
    unicode-range="U+0078-E611"
  />
<missing-glyph horiz-adv-x="374" 
d="M34 0v682h272v-682h-272zM68 34h204v614h-204v-614z" />
    <glyph glyph-name=".notdef" horiz-adv-x="374" 
d="M34 0v682h272v-682h-272zM68 34h204v614h-204v-614z" />
    <glyph glyph-name=".null" horiz-adv-x="0" 
 />
    <glyph glyph-name="nonmarkingreturn" horiz-adv-x="341" 
 />
    <glyph glyph-name="x" unicode="x" horiz-adv-x="1001" 
d="M281 543q-27 -1 -53 -1h-83q-18 0 -36.5 -6t-32.5 -18.5t-23 -32t-9 -45.5v-76h912v41q0 16 -0.5 30t-0.5 18q0 13 -5 29t-17 29.5t-31.5 22.5t-49.5 9h-133v-97h-438v97zM955 310v-52q0 -23 0.5 -52t0.5 -58t-10.5 -47.5t-26 -30t-33 -16t-31.5 -4.5q-14 -1 -29.5 -0.5
t-29.5 0.5h-32l-45 128h-439l-44 -128h-29h-34q-20 0 -45 1q-25 0 -41 9.5t-25.5 23t-13.5 29.5t-4 30v167h911zM163 247q-12 0 -21 -8.5t-9 -21.5t9 -21.5t21 -8.5q13 0 22 8.5t9 21.5t-9 21.5t-22 8.5zM316 123q-8 -26 -14 -48q-5 -19 -10.5 -37t-7.5 -25t-3 -15t1 -14.5
t9.5 -10.5t21.5 -4h37h67h81h80h64h36q23 0 34 12t2 38q-5 13 -9.5 30.5t-9.5 34.5q-5 19 -11 39h-368zM336 498v228q0 11 2.5 23t10 21.5t20.5 15.5t34 6h188q31 0 51.5 -14.5t20.5 -52.5v-227h-327z" />
    <glyph glyph-name="uniE600" unicode="&#xe600;" 
d="M930 -16q28 -33 31 -57.5t-19 -48.5q-24 -28 -54 -26t-58 24l-172 166q-46 -30 -98.5 -46.5t-110.5 -16.5q-80 0 -150 30.5t-122 82.5t-82 122t-30 149.5t30 149.5t82 122t122 82t149.5 30t149.5 -30t122 -82t82.5 -122t30.5 -150q0 -60 -17.5 -114t-49.5 -101l34 -33
q24 -25 51.5 -51.5t50 -50t28.5 -29.5zM452.5 107q53.5 0 100.5 20t82 55t55 82t20 100.5t-20 100.5t-55 82t-82 55t-100.5 20t-100.5 -20t-81.5 -55t-54.5 -82t-20 -100.5t20 -100.5t54.5 -82t81.5 -55t100.5 -20z" />
    <glyph glyph-name="uniE601" unicode="&#xe601;" horiz-adv-x="1028" 
d="M1018 700q4 -9 7 -21.5t3 -26t-5.5 -26.5t-16.5 -25q-12 -13 -22 -22t-17 -16l-15 -15l-192 192q13 11 29.5 27t28.5 25q14 11 29.5 15.5t30 4t28.5 -4.5t24 -9q22 -11 48 -39t40 -59zM221 200q6 7 28.5 30t56.5 56l75 75l83 83l220 220l191 -192l-220 -220l-82 -83
q-41 -40 -73.5 -73.5t-54 -55t-25.5 -24.5q-11 -9 -24 -19t-28 -17q-14 -7 -41.5 -17t-58 -20t-57.5 -17t-40 -9q-28 -3 -37 8t-5 38q2 14 9.5 41.5t16.5 56.5t17 53.5t13 33.5q6 15 14 26.5t22 25.5z" />
    <glyph glyph-name="uniE602" unicode="&#xe602;" 
d="M684 409q-17 8 -15.5 21.5t11.5 22.5q3 2 20 15.5t41 33.5q-43 49 -102 77t-129 28q-65 0 -121 -24t-98 -66t-66 -98.5t-24 -120.5t24 -120t66 -98t98 -66t121 -24q53 0 100.5 17t87 47.5t68 72t41.5 90.5q7 24 26.5 39t46.5 15q31 0 53 -22.5t22 -52.5q0 -15 -5 -28
q-21 -72 -63 -132.5t-100 -104t-128.5 -68t-148.5 -24.5q-95 0 -179 36t-146 98.5t-98.5 146t-36.5 178.5t36.5 179t98.5 146t146 98.5t179 36.5q105 0 195.5 -43.5t153.5 -118.5q24 17 39.5 30t20.5 16q6 5 13 7.5t13 0t11 -10.5t7 -25q1 -9 2 -31t2 -51t1 -60.5t-1 -58.5
q-1 -35 -17 -51q-8 -8 -24.5 -9t-34.5 3q-28 6 -61 13.5t-63.5 15t-53.5 14t-29 10.5z" />
    <glyph glyph-name="uniE603" unicode="&#xe603;" 
d="M39 -50zM652 105q22 50 56 80q15 13 29 19q-4 5 -13 20q-8 11 -19 30q-30 -16 -69 -68q-15 -20 -30 -47zM458 44q3 -8 6.5 -20t5.5 -16q2 -11 4 -17q34 10 51 17q58 25 84 52l-39 42q-8 -8 -27 -20q-38 -24 -85 -38zM390 571q0 34 25 58.5t59 24.5q35 0 59.5 -24.5
t24.5 -58.5q0 -36 -24 -60t-60 -24q-34 0 -59 24t-25 60zM298 571q0 -28 7 -52h-2q25 -57 46 -98l24 -45q68 -132 100 -180q1 0 1 -1v-1q43 71 72 126l30 56l24 46q23 46 45 97h-1q7 24 7 52q0 72 -52 124t-125 52t-124.5 -51.5t-51.5 -124.5zM264 46q19 -14 42 -26
q55 -30 99 -36q1 5 2 18t2 19l3 19q-18 3 -35 10q-40 14 -80 42q-2 -3 -23 -31zM77 -85q0 -27 19 -46t46 -19h740q27 0 46 19t19 46v539q0 27 -19 46t-46 19h-180l-31 -88h177q14 0 14 -13v-118q-58 1 -102 -20l5 -13l15 -40q36 12 57 15l25 4v-298q0 -13 -14 -13h-669
q-14 0 -14 13v182q7 -6 13 -12q3 -3 15.5 -13.5t21.5 -18.5q5 5 14.5 15t9.5 11q8 8 12 13q-45 37 -86 88v205q0 5 4 9t10 4h96l-29 88h-104q-27 0 -46 -19t-19 -46v-539zM985 -50z" />
    <glyph glyph-name="uniE604" unicode="&#xe604;" 
d="M511 812q-104 0 -198.5 -40.5t-163 -109t-109 -163t-40.5 -198.5q0 -166 98 -301l39 40q-82 118 -82 261q0 93 36 177.5t97 145.5t145.5 97t177.5 36t177.5 -36t145.5 -97t97.5 -145.5t36.5 -177.5t-36.5 -177.5t-97.5 -145.5t-145.5 -97.5t-177.5 -36.5q-142 0 -258 81
l-35 -43q132 -92 293 -92q104 0 199 40t163.5 108.5t109 163.5t40.5 199t-40.5 198.5t-109 163t-163.5 109t-199 40.5zM493 556v-237h-237v-55h237v-237h55v237h237v55h-237v237h-55z" />
    <glyph glyph-name="uniE605" unicode="&#xe605;" 
d="M582 624q2 -4 16.5 -28.5t36 -61t48.5 -83.5t56 -96q28 -47 57 -96q28 -48 51.5 -88t40 -69t23.5 -39q12 -21 15 -41.5t-2.5 -37t-19 -26.5t-32.5 -9h-42h-77h-103h-115h-117h-108h-88h-56q-31 0 -47.5 10.5t-22.5 27.5t-1.5 36.5t16.5 36.5q5 9 22 37t41 68q20 34 52 87
q28 48 58 98q28 47 58 96q27 46 50 84q22 38 36 63l18 28q11 18 29.5 27.5t38 9.5t38 -8.5t30.5 -25.5zM561 463q0 10 -4.5 18.5t-12 15.5t-16.5 11t-19 4q-19 0 -35 -14.5t-16 -33.5v-215q0 -19 16 -34t35 -15t35.5 14.5t16.5 33.5v215zM509 152q-22 0 -37 -15t-15 -36
t15 -36.5t36.5 -15.5t36.5 15.5t15 36.5t-15 36t-36 15zM509 152z" />
    <glyph glyph-name="uniE606" unicode="&#xe606;" 
d="M1021 146q3 -14 -1 -32q-3 -18 -10.5 -37.5t-18.5 -34.5t-24 -22q-13 -6 -23 -6t-22 4q-10 3 -27 6q-16 3 -33 1q-17 -1 -34 -6.5t-29 -18.5q-26 -28 -30.5 -62.5t9.5 -66.5q11 -22 -3 -44q-7 -8 -21 -18q-14 -9 -31 -17q-16 -7 -36 -12q-18 -4 -32 -4q-10 0 -19 8
q-8 7 -12 16h-1q-12 34 -41 58.5t-67 24.5q-37 0 -67 -24.5t-42 -57.5q-5 -13 -16 -19t-24 -6q-16 0 -35 6q-19 5 -38 13t-34 19t-23 22q-6 8 -6.5 18t8.5 29q12 25 9.5 57t-28.5 60q-15 16 -37 21q-21 5 -41 4q-23 -1 -47 -9q-15 -4 -31 2q-12 5 -22 20q-10 16 -19 35
q-8 19 -12 39.5t-2 33.5q3 24 22 30q32 14 58.5 44t26.5 67q0 38 -26.5 66.5t-58.5 41.5q-10 3 -16.5 15.5t-6.5 25.5q0 14 4 32q4 17 12 34q6 16 16 30q9 13 20 20q9 5 17 4t18 -4q33 -13 68.5 -8.5t62.5 31.5q13 13 19 32q6 20 8 37q1 19 0 34q-2 14 -3 22q-2 7 -3.5 15.5
t1.5 15.5q6 15 23 26.5t36.5 19t38.5 11.5q18 4 29 4q15 0 23 -9.5t11 -19.5q12 -29 39.5 -51.5t64.5 -22.5q38 0 67.5 21.5t41.5 53.5q4 9 13.5 18.5t19.5 9.5q15 0 33 -5q18 -4 35 -12q18 -7 33 -19q14 -12 23 -26q6 -9 3 -20q-2 -10 -4 -14q-14 -32 -9 -67q6 -35 32 -61
t64.5 -29t70.5 13q9 5 21.5 4t21.5 -10q16 -15 28.5 -46t17.5 -63q2 -18 -6 -29q-9 -10 -17 -13q-34 -12 -58 -42t-24 -69q0 -37 20 -65q20 -27 53 -39q7 -4 13 -9q12 -10 16 -25zM514 48q49 0 92.5 18.5t76 51t51 75.5t18.5 92.5t-19 92.5q-18 43 -50 75q-33 32 -76.5 50.5
t-92.5 18.5t-92 -18.5t-75.5 -50.5t-51 -75t-18.5 -92t19 -93q18 -43 51 -75q32 -33 75 -52q43 -18 92 -18zM514 48z" />
    <glyph glyph-name="uniE607" unicode="&#xe607;" horiz-adv-x="1051" 
d="M989 247l-210 250v-114h-628v-290h628v-114zM289 273h-70v-23h66v-24h-66v-24h70v-25h-94v122h94v-26zM391 176l-30 46l-28 -45h-30l38 61l-39 61h30l29 -46l30 46h30l-40 -62l40 -61h-30zM539 200q0 -5 -2.5 -9t-6 -6.5t-9.5 -4.5t-11 -2h-46q-4 0 -9 1.5t-9 3t-6.5 4
t-5.5 9t-3 14.5v59q0 4 1 8t3 8t6 7.5t10 5.5t10 2h49q5 0 9 -1.5t8 -3.5t7 -6.5t4 -14.5l1 -17h-25q-1 4 -1.5 7t-2.5 6t-8 3h-30q-5 0 -8.5 -1t-4.5 -2t-2.5 -5t-1.5 -10v-29q0 -9 1.5 -12.5t3 -5t4.5 -2t8 -0.5h28q10 0 12 3t2 5v10h26l-1 -24v0zM659 273h-70v-23h66v-24
h-66v-24h70v-25h-94v122h94v-26zM776 177h-85v121h24v-93h61v-28zM776 177zM702 -43q-15 -5 -31 -5h-450q-44 0 -74.5 29.5t-30.5 72.5v472q0 43 31 74t74 31h450h5h1q2 0 4 -1h2h3q1 0 2 -1h2q2 0 4 -1h1q2 0 3 -1h1l6 -2q35 -12 55 -44q15 -23 16 -51h49v3q0 25 -8 48h1
q-15 43 -52 70.5t-83 28.5h-3h-1h-465q-61 0 -104 -43t-43 -104v-483q0 -61 43 -104t104 -43h464q69 0 113 54h-89z" />
    <glyph glyph-name="uniE608" unicode="&#xe608;" 
d="M824 -212h-624q-83 0 -141.5 55t-58.5 133v648q0 78 58.5 133t141.5 55h624q83 0 141.5 -55t58.5 -133v-648q0 -78 -58.5 -133t-141.5 -55zM200 740q-53 0 -90.5 -34t-37.5 -82v-648q0 -48 37.5 -82t90.5 -34h624q53 0 90.5 34t37.5 82v648q0 48 -37.5 82t-90.5 34h-624z
M166 336h72v-72h-72v72zM339 336h498v-72h-498v72zM166 499h671v-71h-671v71zM339 172h498v-71h-498v71zM166 172h72v-71h-72v71z" />
    <glyph glyph-name="uniE609" unicode="&#xe609;" 
d="M720 365h-48v-256q0 -27 -18.5 -45.5t-45.5 -18.5h-224q-27 0 -45.5 18.5t-18.5 45.5v256h-48q-7 0 -11.5 4.5t-4.5 11.5v32q0 7 4.5 11.5t11.5 4.5h112v64q0 27 18.5 45.5t45.5 18.5h96q27 0 45.5 -18.5t18.5 -45.5v-64h112q7 0 11.5 -4.5t4.5 -11.5v-32
q0 -7 -4.5 -11.5t-11.5 -4.5zM416 365h-32v-256h32v256zM480 109h32v256h-32v-256zM544 477q0 7 -4.5 11.5t-11.5 4.5h-64q-7 0 -11.5 -4.5t-4.5 -11.5v-48h96v48zM608 365h-32v-256h32v256z" />
    <glyph glyph-name="uniE60A" unicode="&#xe60a;" 
d="M617 404h-38h-137h-38l-248 275h709zM579 -66l-112 45q-9 4 -17 15t-8 17v324h137v-401zM888 748h-755q-29 0 -49 -20t-20 -49l309 -344v-324q0 -28 20 -56.5t49 -39.5l137 -55q14 -5 26 -5q19 0 31 12.5t12 33.5v434l309 344q0 29 -20 49t-49 20z" />
    <glyph glyph-name="uniE60B" unicode="&#xe60b;" 
d="M667 -10q0 8 -6 13.5t-14 5.5h-272q-8 0 -13.5 -5.5t-5.5 -13.5v-78h-194v-58h699v58h-194v78zM900 748h-777q-24 0 -41.5 -17t-17.5 -42v-544q0 -24 17.5 -41t41.5 -17h777q24 0 41 17t17 41v544q0 25 -17 42t-41 17zM900 165q0 -8 -5.5 -14t-13.5 -6h-739q-8 0 -13.5 6
t-5.5 14v505q0 8 5.5 13.5t13.5 5.5h739q8 0 13.5 -5.5t5.5 -13.5v-505zM519 631zM508 547q-33 0 -64 -12.5t-51.5 -30.5t-36 -36t-22.5 -30l-8 -13q4 -4 10 -12.5t26 -29.5t40.5 -37t51 -29t59.5 -13t58.5 12.5t51 30.5t39 36t26.5 31l8 12q-3 5 -8.5 13.5t-24 29t-39 36.5
t-52 29t-64.5 13zM511 337q-36 0 -62 26t-26 62.5t26 62.5t62.5 26t62.5 -26t26 -62.5t-26 -62.5t-63 -26zM455 425q0 12 4.5 22t12.5 18t18 12.5t21.5 4.5t21.5 -4.5t18 -12.5t12.5 -18t4.5 -22h-113zM568 426q0 -11 -4.5 -21.5t-12 -18.5t-18 -12t-21.5 -4t-21.5 4
t-18.5 12t-12.5 18.5t-4.5 21.5h113z" />
    <glyph glyph-name="uniE60C" unicode="&#xe60c;" 
d="M1003 204q-37 -52 -101.5 -81.5t-130 -25t-102.5 45.5q-14 16 -30.5 22t-29 6t-32 -9t-30 -15.5t-32.5 -21.5q-26 -18 -53 -22.5t-54 4.5t-48 21t-47 32q-41 25 -87 7t-83 -44.5t-37 -29.5q-28 10 -50 28q-6 5 -12 11.5t-9 10.5l-3 4q4 4 11.5 10t31 22.5t46 30t54 27
t59.5 19t57 1t51 -21.5q36 -29 68.5 -37t57.5 0t52 29q41 31 92 28.5t86 -37.5q26 -26 70.5 -32t90.5 13t70 59q29 8 51 -2q12 -6 17.5 -19t5.5 -23v-10zM578 303h-142v178h152v-176zM401 252q-28 10 -57 34q-65 52 -188 -9v1v129q15 0 26 11l314 313l312 -311
q14 -15 35 -10v-132q0 -11 -7.5 -18.5t-18.5 -7.5h-93q-14 8 -24 17q-35 35 -86 38v200h-204v-255h-9zM872 410q-9 -9 -18 0l-362 336l-378 -349q-9 -9 -18 0l-17 19q-9 9 1 18l392 363q0 1 2 1h1l8 9q8 9 18 0l387 -360q10 -9 1 -18zM817 736q11 0 18.5 -7.5t7.5 -18.5
v-183l-209 209h183zM156 710q0 11 7.5 18.5t17.5 7.5h175l-200 -201v175zM335 82q35 -29 67.5 -37t57.5 0t53 29q41 32 91.5 29.5t86.5 -37.5q26 -26 70.5 -32t90 12.5t70.5 59.5q29 7 51 -3q12 -5 17.5 -18t5.5 -23v-11q-37 -51 -101.5 -80.5t-130 -25.5t-102.5 46
q-15 15 -31 21.5t-29 6t-32 -9t-30 -15.5t-32 -22q-26 -18 -53 -22.5t-54 5t-48 21t-47 31.5q-41 25 -87 7.5t-83 -44.5t-37 -30q-29 10 -50 28q-19 16 -24 27q4 3 11.5 9.5t31 22.5t46 29.5t54 27t59 19.5t57 1.5t51.5 -22.5zM328 -70q35 -29 67.5 -37t57.5 -0.5t52 29.5
q42 31 92.5 28.5t85.5 -37.5q26 -26 71 -32t90.5 13t70.5 59q29 8 50 -2q23 -11 23 -52q-36 -52 -100.5 -81.5t-130 -25t-103.5 45.5q-14 16 -30 22t-29 6t-32 -9t-30 -15.5t-32 -21.5q-27 -18 -54 -22.5t-53.5 4.5t-47.5 21t-47 32q-41 25 -87 7t-83 -44.5t-37 -29.5
q-29 10 -50 28q-6 5 -12 11.5t-9 10.5l-3 4q4 4 11.5 10t30.5 22.5t46 30t54.5 27t59 19t57 1t51.5 -21.5z" />
    <glyph glyph-name="uniE60D" unicode="&#xe60d;" 
d="M931 575q-7 -8 -15 -7.5t-12 9.5q-6 14 -32 14q-15 0 -26 16q-4 5 -11.5 16t-11.5 15q-11 17 -28 14q-5 -1 -6 3h-10q-2 -3 -18 -7q-7 -1 -13 -6t-2 -9t5 -7.5t1 -5.5t-2 -6.5t-3 -5.5q-5 -14 -5 -16q-1 -13 -6 -17.5t-18 -3.5q-7 1 -7 -1q-11 -25 -11 -34t9 -4
q5 2 14.5 2.5t14.5 2.5q10 4 24 -15q4 -5 -5 -6q-31 0 -45 -25q-5 -8 -13 -8q-7 1 -8 -2q-3 -11 -11 -12t-16 4q-9 4 -13 -1q-5 -8 -2 -14l7 -11q-1 -1 -6.5 -3t-7.5 -5q-12 -20 -43 -19q-19 1 -26 -5q-17 -14 -51 -2q-4 1 -12 6t-15 7t-15 1q-13 -1 -18 -1t-17.5 3t-18.5 3
q-4 1 -5 4q-7 22 -28 37q-15 11 -28 11q-14 0 -16.5 4t4.5 16q5 11 0 24.5t-17 18.5t-13 16q0 5 -3.5 7.5t-7 1.5t-4.5 -2q-2 -3 -5.5 -5.5t-8.5 -4t-7 -2.5t-4 -7q-5 -14 -8.5 -15t-17.5 6q-12 6 -17 -6q-7 -14 -15 -20.5t-23 -2.5q-3 2 -7.5 0.5t-3.5 -5.5q5 -25 -10 -44
q-7 -10 -16 -11q-2 0 -12.5 -1t-14 -1.5t-10.5 -3.5t-12 -7.5t-9 0.5t-8 5.5t-12 -1.5l-8 -3q-4 -1 -6 -3.5t-3 -4.5t-3 -6.5t-2 -5.5q-2 -3 2 -6q23 -16 2 -36q7 0 11.5 -4.5t3.5 -9.5q-1 -4 -0.5 -7t3 -6t4 -4t5.5 -3.5t5 -3.5q6 -4 10 -15q6 -16 5 -26q0 -3 -0.5 -6
t-0.5 -4.5t-0.5 -3t-1.5 -2.5l-3 -2q-1 -2 -4 -3l-1 -2q-3 -2 -0.5 -16t5.5 -15q5 -1 16.5 -13.5t24.5 -7.5q2 0 3 -3q1 -2 2 -2q36 -38 49 -49q15 -12 41 -12q17 0 19 -13q4 1 9.5 8t11.5 7q10 0 21.5 -9.5t13.5 -20.5q1 -4 9 -5t15 1.5t16 8.5t12 7q17 9 30 1q10 -6 16 1
q3 6 6.5 5.5t4.5 -7.5q1 -2 6 -9q6 -7 4.5 -20t-8.5 -19q-19 -15 -14 -33q23 10 23 -11q0 -7 7 -7q6 1 4 -4q-1 -2 -3 -5t-2.5 -4.5t1.5 -3.5t7 -4q2 0 8 -5.5t12 -2.5q7 3 9 -3q3 -8 9 -6q3 0 2 5t-1 6q1 3 0 5.5t-0.5 5.5t3.5 4q19 5 30 2q8 -2 15 0q-31 47 -31 102
q0 79 58 134.5t140 55.5q51 0 95 -23q0 1 2 4t3 3.5t3 3.5t3 4l3 3l3 3q1 1 3.5 2.5t4 2.5t4 2t5.5 2q4 1 4 8q0 4 -5 4q-3 0 -11 1t-12.5 0.5t-10.5 -3.5t-9 -9q-3 -5 -7 -3.5t-4 5.5q0 9 -3.5 11t-12.5 1q-9 0 -10 7q0 7 3 8q6 2 11 4.5t10 8t7 7.5t8 11l5 9q6 8 13 5
q9 -5 4 -13q-4 -6 -4 -12q-2 -14 1 -16q5 -2 11 7q1 1 1 2q5 8 12 11q5 2 8.5 4.5t7.5 6t6 5.5t6 7.5t5 6.5t5 8t5 7q3 5 4 5.5t7 -2.5q3 -3 6.5 -2t6.5 3t2 3q-3 3 -2 5t2 3t3.5 2t3.5 2q3 2 9.5 8.5t12.5 9.5q4 2 6 5t1.5 7t-1.5 7t-3.5 8t-2.5 7q-7 19 12 19q4 0 11 7v69
q-22 -14 -29 -23zM751 300v-148h149q0 3 -0.5 8.5t-3 21t-8 29t-16.5 31t-26 29.5t-40 20.5t-55 8.5zM721 270h-7q-7 1 -9 1q-1 0 -4 -0.5t-5 -0.5h-5q-64 -6 -107.5 -52t-43.5 -110q0 -67 48.5 -115t116.5 -48q64 0 111 42.5t52 105.5h2v29h-149v148zM837 93
q-6 -50 -43.5 -83.5t-88.5 -33.5q-55 0 -94 38.5t-39 93.5q0 51 34 88t85 43v-146h146z" />
    <glyph glyph-name="uniE60E" unicode="&#xe60e;" 
d="M785 -91v794q0 3 0.5 6t1.5 6t2 5.5t3 5.5t3.5 4.5t3.5 4.5q6 9 6.5 11.5t-8.5 4.5h-554q-9 -2 -8.5 -4.5t6.5 -11.5l3 -5l3 -4q2 -3 3.5 -5.5t2.5 -5.5t1.5 -6t0.5 -6v-794h-66v-60h646v60h-50zM646 629h66v-71h-66v71zM646 435h66v-72h-66v72zM646 241h66v-72h-66v72z
M516 629h67v-71h-67v71zM516 435h67v-72h-67v72zM516 241h67v-72h-67v72zM328 688h124v-130h-124v130zM328 494h124v-131h-124v131zM328 300h124v-126h-124v126zM328 111h124v-131h-124v131z" />
    <glyph glyph-name="uniE60F" unicode="&#xe60f;" 
d="M1024 308q0 -19 -14 -33t-34 -14q-19 0 -33 13l-430 423l-1 1l-430 -423q-14 -14 -34 -14t-34 14t-14 33q0 20 15 34l462 455q15 15 35 15h3h2q18 -2 30 -15l189 -186v44q0 19 14 33t34 14t34 -14t14 -33v-138l179 -176q13 -14 13 -33zM928 230v-142v-63v-126
q0 -19 -14 -33t-34 -14h-96v378h-192v-378h-448q-20 0 -34 14t-14 33v126v63v142l416 409zM432 230h-192v-189h192v189z" />
    <glyph glyph-name="uniE610" unicode="&#xe610;" 
d="M935 -123q-25 -25 -60.5 -25t-60.5 25l-302 302l-302 -302q-25 -25 -60.5 -25t-60.5 25t-25 60.5t25 60.5l302 302l-302 302q-25 25 -25 60.5t25 60.5t60.5 25t60.5 -25l302 -302l302 302q25 25 60.5 25t60 -25t24.5 -60.5t-24 -60.5l-302 -302l302 -302
q24 -25 24.5 -60.5t-24.5 -60.5z" />
    <glyph glyph-name="uniE611" unicode="&#xe611;" 
d="M510 748q-91 0 -173.5 -35.5t-142.5 -95.5t-95.5 -142.5t-35.5 -173.5t35.5 -173.5t95.5 -142.5t142.5 -95.5t173.5 -35.5t173.5 35.5t142.5 95.5t95.5 142.5t35.5 173.5t-35.5 173.5t-95.5 142.5t-142.5 95.5t-173.5 35.5zM510 -46q-94 0 -174 46.5t-126.5 126.5
t-46.5 174t46.5 174t126.5 126.5t174 46.5t174 -46.5t126.5 -126.5t46.5 -174t-46.5 -174t-126.5 -126.5t-174 -46.5zM714 344l-259 149q-24 14 -49 0t-25 -43v-298q0 -29 25 -43q11 -7 24.5 -7t24.5 7l259 149q24 14 24 43t-24 43z" />
  </font>
</defs>
</svg>
